<?xml version="1.0" standalone="no"?><!DOCTYPE svg PUBLIC "-//W3C//DTD SVG 1.1//EN" "http://www.w3.org/Graphics/SVG/1.1/DTD/svg11.dtd"><svg t="1531009191027" class="icon" style="" viewBox="0 0 1024 1024" version="1.1" xmlns="http://www.w3.org/2000/svg" p-id="3945" xmlns:xlink="http://www.w3.org/1999/xlink" width="200" height="200"><defs><style type="text/css"></style></defs><path d="M921.529187 352.519776C878.16454 242.165412 794.426371 155.310252 685.74409 107.945501c-108.682281-47.357588-229.316779-49.559742-339.671143-6.210445-98.722442 38.794561-178.632423 109.902062-228.293473 202.27182l0-153.383366c0-11.04659-8.952906-19.999496-19.999496-19.999496-11.04659 0-19.999496 8.952906-19.999496 19.999496l0 217.020732c0 11.04659 8.952906 19.999496 19.999496 19.999496l217.028918 0c11.04659 0 19.999496-8.952906 19.999496-19.999496 0-11.04659-8.952906-19.999496-19.999496-19.999496L140.806933 347.644745c43.630706-96.036263 121.485889-170.011068 219.890083-208.68488 100.401688-39.451524 210.177883-37.435611 309.063031 5.655813 98.893334 43.091424 175.085644 122.126478 214.544331 222.528166 39.451524 100.408851 37.443797 210.16151-5.655813 309.055868-43.091424 98.901521-122.126478 175.092807-222.528166 214.544331-100.408851 39.466873-210.169697 37.45096-309.063031-5.64865-72.050989-31.397081-132.869147-82.542948-175.866427-147.899468-6.077416-9.241478-18.491143-11.780301-27.701922-5.718235-9.226129 6.077416-11.788487 18.475793-5.718235 27.701922 47.278793 71.855538 114.119107 128.071887 193.303564 162.585959 56.864102 24.780383 117.001761 37.201274 177.218214 37.201274 54.888098 0 109.838617-10.320043 162.452929-30.990828C781.098831 884.611369 867.953991 800.8732 915.318742 692.182732 962.683493 583.492264 964.894857 462.865953 921.529187 352.519776z" p-id="3946"></path><path d="M424.708911 727.178781c0.008186 0 0.023536 0 0.031722 0 5.711072 0 11.156084-2.984984 14.944364-7.250124l312.328401-351.929328c7.343245-8.257058 6.593162-20.892843-1.655709-28.228925-8.257058-7.351432-20.905122-6.593162-28.233018 1.664919L424.787706 675.975609 308.081681 543.851429c-7.30436-8.280594-19.952424-9.002025-28.233018-1.682315-8.273431 7.312546-9.0624 20.087501-1.749854 28.368094l131.650389 149.34233C413.538501 724.168214 418.983513 727.178781 424.708911 727.178781z" p-id="3947"></path></svg>