<?xml version="1.0" standalone="no"?><!DOCTYPE svg PUBLIC "-//W3C//DTD SVG 1.1//EN" "http://www.w3.org/Graphics/SVG/1.1/DTD/svg11.dtd"><svg t="1521986504932" class="icon" style="" viewBox="0 0 1024 1024" version="1.1" xmlns="http://www.w3.org/2000/svg" p-id="5472" xmlns:xlink="http://www.w3.org/1999/xlink" width="200" height="200"><defs><style type="text/css"></style></defs><path d="M946.150446 932.150082 819.560306 932.150082c0.751107-4.568039 1.051959-9.464559 0.546446-14.935154L820.106752 118.943996c0-28.269857-27.612894-55.104015-55.746652-55.104015L259.637854 63.83998c-28.132734 0-55.746652 26.834158-55.746652 55.104015l0 797.095153c-0.943488 5.907547-0.861624 11.269671 0.150426 16.110933L77.847507 932.150082c-7.740288 0-14.004969 6.263657-14.004969 14.004969s6.263657 14.004969 14.004969 14.004969l868.301915 0c7.741311 0 14.005992-6.263657 14.005992-14.004969S953.891757 932.150082 946.150446 932.150082zM610.033245 932.150082 413.964708 932.150082 413.964708 666.056702l196.068538 0L610.033245 932.150082zM791.057135 930.945651c0 0-1.203408 1.067308-7.686053 1.067308-2.777253 0-5.661953 0.245593-8.576329 0.081864-3.500731-0.192382-7.014764 0.055259-10.434653 0.055259l-126.316917 0L638.043183 652.051733c0-7.740288-6.263657-14.004969-14.004969-14.004969L399.959739 638.046764c-7.740288 0-14.004969 6.263657-14.004969 14.004969l0 280.098349L255.918136 932.150082c-5.731538 0-20.980847-0.465604-23.961738-4.021593-0.656963-0.793062-1.121544-3.802606-0.274246-8.397251 0.137123-0.820692 0.218988-1.669012 0.218988-2.51631L231.901139 118.943996c0-12.828167 15.030321-27.094078 27.735691-27.094078l504.72327 0c12.70537 0 27.735691 14.716166 27.735691 27.545356l0.055259 799.297308C793.040303 928.594093 791.083741 930.919045 791.057135 930.945651zM441.974645 189.884698l-98.03478 0c-7.740288 0-14.004969 6.263657-14.004969 14.004969l0 98.03478c0 7.726985 6.263657 14.004969 14.004969 14.004969l98.03478 0c7.726985 0 14.004969-6.277984 14.004969-14.004969l0-98.03478C455.979614 196.148355 449.70163 189.884698 441.974645 189.884698zM427.969677 287.919479l-70.024843 0 0-70.024843 70.024843 0L427.969677 287.919479zM680.057065 189.884698l-98.03478 0c-7.740288 0-14.004969 6.263657-14.004969 14.004969l0 98.03478c0 7.726985 6.263657 14.004969 14.004969 14.004969l98.03478 0c7.740288 0 14.005992-6.277984 14.005992-14.004969l0-98.03478C694.063057 196.148355 687.798377 189.884698 680.057065 189.884698zM666.05312 287.919479 596.028277 287.919479l0-70.024843 70.024843 0L666.05312 287.919479zM441.974645 413.96215l-98.03478 0c-7.740288 0-14.004969 6.263657-14.004969 14.004969l0 98.03478c0 7.726985 6.263657 14.004969 14.004969 14.004969l98.03478 0c7.726985 0 14.004969-6.277984 14.004969-14.004969l0-98.03478C455.979614 420.22683 449.70163 413.96215 441.974645 413.96215zM427.969677 511.99693l-70.024843 0 0-70.024843 70.024843 0L427.969677 511.99693zM680.057065 413.96215l-98.03478 0c-7.740288 0-14.004969 6.263657-14.004969 14.004969l0 98.03478c0 7.726985 6.263657 14.004969 14.004969 14.004969l98.03478 0c7.740288 0 14.005992-6.277984 14.005992-14.004969l0-98.03478C694.063057 420.22683 687.798377 413.96215 680.057065 413.96215zM666.05312 511.99693 596.028277 511.99693l0-70.024843 70.024843 0L666.05312 511.99693z" p-id="5473"></path></svg>