<?xml version="1.0" standalone="no"?><!DOCTYPE svg PUBLIC "-//W3C//DTD SVG 1.1//EN" "http://www.w3.org/Graphics/SVG/1.1/DTD/svg11.dtd"><svg t="1531009150412" class="icon" style="" viewBox="0 0 1024 1024" version="1.1" xmlns="http://www.w3.org/2000/svg" p-id="2974" xmlns:xlink="http://www.w3.org/1999/xlink" width="200" height="200"><defs><style type="text/css"></style></defs><path d="M512 102.4C286.72 102.4 102.4 286.72 102.4 512s184.32 409.6 409.6 409.6 409.6-184.32 409.6-409.6S737.28 102.4 512 102.4z m296.96 209.92c33.28 51.2 56.32 110.08 61.44 174.08h-204.8c0-48.64-5.12-94.72-12.8-138.24 53.76-7.68 107.52-20.48 156.16-35.84z m-35.84-46.08c-40.96 12.8-87.04 23.04-133.12 30.72-10.24-46.08-25.6-92.16-40.96-133.12 69.12 17.92 128 53.76 174.08 102.4zM409.6 486.4c2.56-46.08 5.12-89.6 12.8-133.12 28.16 2.56 58.88 5.12 87.04 5.12 30.72 0 58.88-2.56 87.04-5.12 7.68 43.52 12.8 87.04 12.8 133.12H409.6z m204.8 51.2c-2.56 46.08-5.12 89.6-12.8 133.12-30.72-2.56-58.88-5.12-89.6-5.12-30.72 0-58.88 2.56-87.04 5.12-7.68-43.52-12.8-87.04-12.8-133.12H614.4zM486.4 153.6h51.2c23.04 46.08 38.4 94.72 53.76 148.48-28.16 5.12-53.76 5.12-79.36 5.12s-51.2-2.56-76.8-2.56c12.8-53.76 30.72-104.96 51.2-151.04z m-61.44 10.24c-17.92 40.96-30.72 84.48-40.96 133.12-46.08-7.68-89.6-17.92-133.12-30.72 46.08-48.64 104.96-84.48 174.08-102.4z m-209.92 148.48c48.64 15.36 102.4 28.16 156.16 35.84-7.68 43.52-12.8 89.6-12.8 138.24H153.6c5.12-64 28.16-125.44 61.44-174.08z m0 399.36c-33.28-51.2-56.32-110.08-61.44-174.08h204.8c0 48.64 5.12 94.72 12.8 138.24-53.76 7.68-107.52 20.48-156.16 35.84z m35.84 46.08c40.96-12.8 87.04-23.04 133.12-30.72 10.24 46.08 25.6 92.16 40.96 133.12-69.12-17.92-128-53.76-174.08-102.4zM537.6 870.4h-51.2c-23.04-46.08-38.4-94.72-53.76-148.48 25.6-2.56 51.2-2.56 76.8-2.56s51.2 2.56 76.8 2.56c-10.24 51.2-28.16 102.4-48.64 148.48z m61.44-10.24c17.92-40.96 30.72-84.48 40.96-133.12 46.08 7.68 89.6 17.92 133.12 30.72-46.08 48.64-104.96 84.48-174.08 102.4z m209.92-148.48c-48.64-15.36-102.4-28.16-156.16-35.84 7.68-43.52 12.8-89.6 12.8-138.24h204.8c-5.12 64-28.16 125.44-61.44 174.08z" p-id="2975"></path></svg>