<?xml version="1.0" standalone="no"?><!DOCTYPE svg PUBLIC "-//W3C//DTD SVG 1.1//EN" "http://www.w3.org/Graphics/SVG/1.1/DTD/svg11.dtd"><svg t="1521986518277" class="icon" style="" viewBox="0 0 1025 1024" version="1.1" xmlns="http://www.w3.org/2000/svg" p-id="5712" xmlns:xlink="http://www.w3.org/1999/xlink" width="200.1953125" height="200"><defs><style type="text/css"></style></defs><path d="M854.019612 100.911618l-683.601043 0c-29.599731 0-53.68125 24.080495-53.68125 53.680227l0 714.81631c0 29.599731 24.081519 53.68125 53.68125 53.68125l683.601043 0c29.599731 0 53.68125-24.081519 53.68125-53.68125l0-714.81631C907.700862 124.992114 883.619343 100.911618 854.019612 100.911618zM512.21909 597.327532 512.21909 597.327532c-9.852927 0-17.867132-8.015229-17.867132-17.867132l0-81.146386c0-5.738326-3.199335-10.998544-8.29677-13.636844-16.124646-8.348983-26.141379-24.705005-26.141379-42.686801l0-8.549646c0-26.483323 21.545599-48.029946 48.029946-48.029946l8.549646 0c26.484347 0 48.029946 21.545599 48.029946 48.029946l0 8.549646c0 17.981796-10.016733 34.338842-26.141379 42.686801-5.096412 2.638299-8.29677 7.898517-8.29677 13.636844l0 81.146386C530.086222 589.312303 522.070993 597.327532 512.21909 597.327532zM496.861261 355.49265c-38.188281 5.404572-67.661062 38.291683-67.661062 77.948075l0 8.549646c0 26.274471 12.982644 50.407179 34.437125 65.015597l0 72.454433c0 21.420696 13.941932 39.634892 33.223937 46.078608l0 246.361045-150.794619 0 0-719.799082 150.794619 0L496.861261 355.49265zM527.574872 625.539008c19.282005-6.442692 33.223937-24.656887 33.223937-46.078608l0-72.454433c21.454481-14.608417 34.437125-38.741126 34.437125-65.015597l0-8.549646c0-39.656391-29.472782-72.543503-67.661062-77.948075l0-203.392702 150.794619 0 0 719.799082-150.793595 0L527.574872 625.539008zM167.926671 869.408155l0-714.81631c0-1.303281 1.187593-2.491898 2.491898-2.491898l144.935485 0 0 719.799082-144.935485 0C169.114264 871.900053 167.926671 870.71246 167.926671 869.408155zM856.51151 869.408155c0 1.304305-1.187593 2.491898-2.491898 2.491898l-144.936509 0 0-719.799082 144.936509 0c1.304305 0 2.491898 1.187593 2.491898 2.491898L856.51151 869.408155z" p-id="5713"></path></svg>