<?xml version="1.0" standalone="no"?><!DOCTYPE svg PUBLIC "-//W3C//DTD SVG 1.1//EN" "http://www.w3.org/Graphics/SVG/1.1/DTD/svg11.dtd"><svg t="1521987681536" class="icon" style="" viewBox="0 0 1038 1024" version="1.1" xmlns="http://www.w3.org/2000/svg" p-id="5331" xmlns:xlink="http://www.w3.org/1999/xlink" width="202.734375" height="200"><defs><style type="text/css"></style></defs><path d="M178.695168 524.35968 178.695168 48.848896c0-14.138368-11.461632-25.6-25.6-25.6l-1.024 0c-14.138368 0-25.6 11.461632-25.6 25.6l0 475.510784c-69.55008 12.3392-122.368 73.095168-122.368 146.189312 0 73.566208 53.505024 134.626304 123.720704 146.413568-0.872448 2.578432-1.352704 5.337088-1.352704 8.210432l0 102.4c0 14.138368 11.461632 25.6 25.6 25.6l1.024 0c14.138368 0 25.6-11.461632 25.6-25.6l0-102.4c0-2.873344-0.480256-5.632-1.352704-8.210432 70.21568-11.788288 123.720704-72.848384 123.720704-146.413568C301.063168 597.454848 248.245248 536.69888 178.695168 524.35968zM152.582144 766.804992c-53.16096 0-96.256-43.09504-96.256-96.256s43.09504-96.256 96.256-96.256 96.256 43.09504 96.256 96.256S205.743104 766.804992 152.582144 766.804992z" p-id="5332"></path><path d="M537.092096 133.19168 537.092096 48.848896c0-14.138368-11.461632-25.6-25.6-25.6l-1.024 0c-14.138368 0-25.6 11.461632-25.6 25.6l0 84.342784c-69.55008 12.3392-122.368 73.095168-122.368 146.189312s52.81792 133.850112 122.368 146.189312l0 473.396224c0 14.138368 11.460608 25.6 25.6 25.6l1.024 0c14.138368 0 25.6-11.461632 25.6-25.6L537.092096 425.570304c69.55008-12.3392 122.368-73.095168 122.368-146.189312S606.642176 145.53088 537.092096 133.19168zM510.979072 375.636992c-53.159936 0-96.256-43.09504-96.256-96.256s43.09504-96.256 96.256-96.256c53.16096 0 96.256 43.09504 96.256 96.256S564.140032 375.636992 510.979072 375.636992z" p-id="5333"></path><path d="M1021.949952 670.548992c0-73.094144-52.818944-133.850112-122.369024-146.189312L899.580928 48.848896c0-14.138368-11.461632-25.6-25.6-25.6l-1.024 0c-14.138368 0-25.6 11.461632-25.6 25.6l0 475.510784c-69.551104 12.340224-122.366976 73.096192-122.366976 146.189312 0 73.566208 53.505024 134.626304 123.720704 146.413568-0.873472 2.578432-1.352704 5.337088-1.352704 8.210432l0 102.4c0 14.138368 11.460608 25.6 25.6 25.6l1.024 0c14.138368 0 25.6-11.461632 25.6-25.6l0-102.4c0-2.873344-0.480256-5.632-1.352704-8.211456C968.443904 805.174272 1021.949952 744.1152 1021.949952 670.548992zM873.468928 766.804992c-53.16096 0-96.256-43.09504-96.256-96.256s43.09504-96.256 96.256-96.256 96.256 43.09504 96.256 96.256S926.629888 766.804992 873.468928 766.804992z" p-id="5334"></path></svg>