<?xml version="1.0" standalone="no"?><!DOCTYPE svg PUBLIC "-//W3C//DTD SVG 1.1//EN" "http://www.w3.org/Graphics/SVG/1.1/DTD/svg11.dtd"><svg t="1521986512324" class="icon" style="" viewBox="0 0 1025 1024" version="1.1" xmlns="http://www.w3.org/2000/svg" p-id="5592" xmlns:xlink="http://www.w3.org/1999/xlink" width="200.1953125" height="200"><defs><style type="text/css"></style></defs><path d="M800.070129 843.522723 607.059652 843.522723c-77.463824 0-105.412186-35.308368-107.229408-113.087518l71.369219 0c16.472734 0 30.666517-11.602579 33.94366-27.746677l61.909427-305.015853c3.277142-16.144098 17.470926-27.746677 33.94366-27.746677 19.128437 0 34.63574-15.507302 34.63574-34.63574l0-30.7863c0-19.129461-15.507302-34.63574-34.63574-34.63574l-70.726281 0 0-127.433846c0-9.572409-7.831971-17.40438-17.40438-17.40438l-20.475741 0c-9.572409 0-17.40438 7.831971-17.40438 17.40438l0 127.433846-207.563611 0 0-127.433846c0-9.572409-7.831971-17.40438-17.40438-17.40438l-20.475741 0c-9.572409 0-17.40438 7.831971-17.40438 17.40438l0 127.433846-70.726281 0c-19.128437 0-34.63574 15.506279-34.63574 34.63574l0 30.7863c0 19.128437 15.506279 34.63574 34.63574 34.63574 16.472734 0 30.666517 11.602579 33.94366 27.745653l61.909427 305.015853c3.277142 16.144098 17.470926 27.746677 33.94366 27.746677l73.078944 0 0 36.274823 0 0 0 3.810535c0 28.38552 8.590597 57.753875 32.310719 85.427863 24.850383 24.850383 53.088478 39.534561 85.796426 43.020556l237.676259 0c9.31851 0 16.943676-7.624142 16.943676-16.943676l0-21.559932C817.012781 851.146865 809.388639 843.522723 800.070129 843.522723zM380.381937 550.248684 562.025307 550.248684c7.88316 0 14.333019 6.449858 14.333019 14.333019s-6.449858 14.333019-14.333019 14.333019L380.381937 578.914722c-7.88316 0-14.333019-6.449858-14.333019-14.333019S372.498776 550.248684 380.381937 550.248684zM380.381937 623.961352c-7.88316 0-14.333019-6.449858-14.333019-14.333019s6.449858-14.333019 14.333019-14.333019L562.025307 595.295315c7.88316 0 14.333019 6.449858 14.333019 14.333019s-6.449858 14.333019-14.333019 14.333019L380.381937 623.961352z" p-id="5593"></path></svg>