<?xml version="1.0" standalone="no"?><!DOCTYPE svg PUBLIC "-//W3C//DTD SVG 1.1//EN" "http://www.w3.org/Graphics/SVG/1.1/DTD/svg11.dtd"><svg t="1521986595546" class="icon" style="" viewBox="0 0 1024 1024" version="1.1" xmlns="http://www.w3.org/2000/svg" p-id="6539" xmlns:xlink="http://www.w3.org/1999/xlink" width="200" height="200"><defs><style type="text/css"></style></defs><path d="M543.113625 839.128479l-18.667152 0-2.89698 0L117.809149 839.128479c-7.071046 0-6.408967-3.885494-22.391986-9.212826l0-7.574512c0-1.032516 2.907213-104.335277 84.768639-147.125849 27.463492-14.360056 36.630269-15.607466 46.611597-17.362436 10.996448-1.917676 24.686239-4.311189 61.242829-20.230764 70.318532-30.591739 88.423889-41.772382 90.25663-42.952254l7.563256-4.853541 0.780783-80.693834-0.560772-10.148128-8.04728-4.901637c-0.195451-0.115634-19.698644-12.608156-26.472931-67.546396l-2.092661-19.394722-16.325827 4.951779c-1.614777-2.967588-3.996011-10.116405-4.674463-21.298072-0.149403-2.687202-0.508583-6.279007-0.928139-10.393721-0.687662-6.753821-2.296299-22.575158-1.459235-31.411407l15.943111 3.475148-2.964518-23.459295c-3.107781-24.559349-7.062859-58.988486-5.628184-74.448596 4.316306-46.51029 47.312562-98.006128 117.005854-101.82613 98.304933 4.459568 115.14753 72.694649 117.832685 101.875249 1.342578 14.099113-2.036379 44.052309-5.894244 74.317613l-3.752464 23.475667 16.70138-3.588735c0.849344 8.835226-0.835018 24.836665-1.553379 31.655977-0.420579 4.03285-0.780783 7.55814-0.950651 10.295484-0.601704 10.592242-2.944052 18.033725-4.629437 21.182438l-16.053628-4.867868-2.40477 19.396769c-6.748704 54.431703-25.972535 67.077721-25.871227 67.077721 0 0 0 0.00921 0.008186 0.00921l-9.357112 4.578272 0.811482 91.556229 7.773034 4.900613c0.546446 0.333598 10.916631 6.751774 46.534849 23.189142l6.89913-33.799804c-14.277168-6.644327-23.721261-11.32493-29.420053-14.274098l-0.460488-52.560076c10.013051-9.395998 25.231661-30.116925 32.764218-72.825632 14.507412-5.507434 23.74889-23.919782 25.310456-51.462069 0.138146-2.26253 0.460488-5.262864 0.825808-8.706289 2.738367-26.114774 4.120854-48.771797-6.821359-61.610196-0.921999-1.080611-1.905396-2.065032-2.950192-2.933819 3.778046-31.182186 5.688559-53.79009 4.308119-68.283176-2.724041-29.541827-21.439288-126.385479-149.784398-132.140553-89.064478 4.78805-143.078673 71.644737-148.683321 132.107807-1.226944 13.114692-0.008186 33.920554 4.058432 68.332295-1.045819 0.88516-2.030239 1.86958-2.950192 2.935865-10.927887 12.769838-9.622148 35.362392-6.976902 61.397349 0.35918 3.507894 0.678452 6.573719 0.811482 8.92016 1.662873 27.574009 10.894118 45.969984 25.310456 51.510164 7.498788 42.741453 22.719444 63.513546 32.723286 72.92387l-0.514723 52.873208c-10.527774 5.555529-33.519418 16.951067-78.285994 36.428677-33.17661 14.459317-44.36851 16.410762-54.242392 18.132986-11.752672 2.049682-21.905916 3.817955-53.647851 20.409842-78.465073 41.020252-95.697549 124.56604-99.476619 160.405293l-0.097214 0c-0.926092 5.857405-3.612271 25.239847-0.305969 34.656311 8.648984 18.72855 28.493961 32.495088 49.782823 32.495088l377.269459 0 0 0.051165 48.102554 0 0-32.06837-0.067538 0L543.111578 839.128479z" p-id="6540"></path><path d="M960.811866 712.197578c-0.51984-0.668219-1.12052-1.26583-1.789763-1.784646l-19.59222-19.533892-189.485609-189.485609-3.578502 3.578502-0.975211-0.972141L558.099944 690.878017l-20.029172 19.882839c-0.13303 0.125867-0.264013 0.254803-0.390903 0.387833-1.746784 1.835811-2.826372 4.313236-2.826372 7.04751 0 5.65172 4.581342 10.233062 10.233062 10.233062l14.128789 0 0 0.017396 48.102554 0 0 176.377056 16.034185 0 16.034185 0 224.479611 0 32.06837 0 0-32.06837L895.934253 728.446657l48.102554 0 0-0.017396 8.835226 0c5.557576 0 10.06217-4.505617 10.06217-10.06217C962.936249 716.03907 962.13807 713.902406 960.811866 712.197578zM863.866906 696.378288l0 16.034185 0 16.034185 0 144.308687L639.387295 872.755344 639.387295 728.446657l0-16.034185 0-16.034185-41.84913 0 151.185304-150.853753 150.853753 150.853753L863.866906 696.378288z" p-id="6541"></path></svg>