<?xml version="1.0" standalone="no"?><!DOCTYPE svg PUBLIC "-//W3C//DTD SVG 1.1//EN" "http://www.w3.org/Graphics/SVG/1.1/DTD/svg11.dtd"><svg t="1521986601156" class="icon" style="" viewBox="0 0 1024 1024" version="1.1" xmlns="http://www.w3.org/2000/svg" p-id="6660" xmlns:xlink="http://www.w3.org/1999/xlink" width="200" height="200"><defs><style type="text/css"></style></defs><path d="M404.003845 621.311615l88.112804 0 0-87.230714-88.112804 0L404.003845 621.311615zM381.97104 424.753937l-88.11178 0 0 87.22969 88.11178 0L381.97104 424.753937zM492.116649 424.753937l-88.112804 0 0 87.22969 88.112804 0L492.116649 424.753937zM434.967044 840.503802l-229.133607-1.548262 0.107447-383.497301 17.493419-14.178931 291.446815-274.491655L816.376801 454.534194c0 0 25.88453 23.496134 132.414799 124.066667l65.303308-67.714218L574.698482 92.102674l-61.754482-61.258179-61.71048 61.258179L3.090896 510.886643l77.750805 71.372537 58.633399-61.258179 0 383.860575 359.396393 0C472.492706 886.872876 451.621353 861.547071 434.967044 840.503802zM878.905926 710.521402 618.205369 710.521402c-10.112312 0-18.332531-2.109034-18.332531 7.939833s8.220219 9.983375 18.332531 9.983375l260.700557 0c10.112312 0 18.332531 1.420349 18.332531-8.628518S889.018238 710.521402 878.905926 710.521402zM838.173223 600.267323 658.938072 600.267323c-95.299483 0-168.155814 48.00534-168.155814 143.540184 0 87.982844 77.697593 150.681838 163.270551 162.388461 13.06148 12.135388-20.441565 64.399729-20.441565 64.399729 21.473057-15.020088 101.496625-53.361325 124.540458-64.917522 40.839127 0 80.020498 0 80.020498 0 95.275947 0 160.151513-66.335824 160.151513-161.870668C998.324736 648.272663 933.449169 600.267323 838.173223 600.267323zM821.28253 861.161285 684.542216 861.161285c-64.765049 0-149.004639-53.6632-149.004639-117.935016 0-64.270792 84.23959-100.592023 149.004639-100.592023l136.740314-0.581238c64.766073 0 132.974547 36.903491 132.974547 101.173261C954.257078 807.498084 886.048603 861.161285 821.28253 861.161285zM293.859259 621.311615l88.11178 0 0-87.230714-88.11178 0L293.859259 621.311615zM878.905926 776.104073 618.205369 776.104073c-10.112312 0-18.332531-2.087545-18.332531 7.960299 0 10.048867 8.220219 9.985422 18.332531 9.985422l260.700557 0c10.112312 0 18.332531 1.420349 18.332531-8.628518S889.018238 776.104073 878.905926 776.104073z" p-id="6661"></path></svg>