<?xml version="1.0" standalone="no"?><!DOCTYPE svg PUBLIC "-//W3C//DTD SVG 1.1//EN" "http://www.w3.org/Graphics/SVG/1.1/DTD/svg11.dtd"><svg t="1521986498948" class="icon" style="" viewBox="0 0 1024 1024" version="1.1" xmlns="http://www.w3.org/2000/svg" p-id="5351" xmlns:xlink="http://www.w3.org/1999/xlink" width="200" height="200"><defs><style type="text/css"></style></defs><path d="M512 1023.612428a32.105807 32.105807 0 0 1-13.046981-2.750099C73.902835 831.23341 73.902835 556.031643 73.902835 465.598155V240.281905a31.977895 31.977895 0 0 1 31.977895-31.977895A161.168592 161.168592 0 0 0 266.793499 47.391241a31.977895 31.977895 0 0 1 27.884725-31.722072C299.474908 15.029611 413.060392 0.319779 512 0.319779s212.525092 14.709832 217.321776 15.34939a31.977895 31.977895 0 0 1 27.884725 31.722072 161.168592 161.168592 0 0 0 160.912769 160.912769 31.977895 31.977895 0 0 1 31.977895 31.977895V465.598155c0 90.433488 0 365.635255-425.050184 555.264174a32.105807 32.105807 0 0 1-13.046981 2.750099zM137.858625 269.893436v195.704719c0 87.683389 0 318.75566 374.141375 490.924649 374.141375-172.105032 374.141375-403.241259 374.141375-490.924649V269.893436a225.124383 225.124383 0 0 1-191.035947-193.850001C655.900529 71.630485 579.281492 64.27557 512 64.27557s-143.900529 7.354916-183.041473 11.703909A225.124383 225.124383 0 0 1 137.858625 269.893436z" fill="#2c2c2c" p-id="5352"></path><path d="M459.300429 706.071928a32.233718 32.233718 0 0 1-22.64035-9.337546L257.647821 517.722125a31.977895 31.977895 0 0 1 45.216744-45.216744l156.371908 156.371908 261.835006-261.962919a31.977895 31.977895 0 0 1 45.216744 45.216744l-284.4114 284.539313a31.722072 31.722072 0 0 1-22.576394 9.401501z" fill="#2c2c2c" p-id="5353"></path></svg>