<?xml version="1.0" standalone="no"?><!DOCTYPE svg PUBLIC "-//W3C//DTD SVG 1.1//EN" "http://www.w3.org/Graphics/SVG/1.1/DTD/svg11.dtd"><svg t="1521986604674" class="icon" style="" viewBox="0 0 1024 1024" version="1.1" xmlns="http://www.w3.org/2000/svg" p-id="6780" xmlns:xlink="http://www.w3.org/1999/xlink" width="200" height="200"><defs><style type="text/css"></style></defs><path d="M688.979705 673.676753c109.454428-63.823662 181.672177-184.792771 174.997991-322.127129C855.368117 173.966745 711.90233 28.240314 534.424176 17.156614 329.504123 4.349992 159.240897 166.756852 159.240897 368.986286c0 130.118423 70.709311 243.341933 175.644465 304.364209-57.901681 85.67588-91.698557 188.888111-91.698557 300.066469 0 4.52028 0.216498 8.933822 0.327265 13.453096-0.110767 1.072421-0.327265 2.260644-0.327265 3.3381 0 18.508076 15.073308 33.575342 33.580377 33.575342 18.514118 0 33.580377-15.067266 33.580377-33.575342l0-16.791196c0-93.526204 27.553672-180.599756 74.692877-253.78218 5.061022-7.751642 11.730173-14.316068 19.265317-19.591574 6.674186-4.623998 15.393524-12.480364 21.524953-24.215572 14.205301-27.226408-18.404359-40.679503-17.756878-41.111493C297.86216 591.664224 220.910653 482.314521 226.721867 355.53319 233.396053 211.530689 349.631405 93.141431 493.528174 84.207609c165.959444-10.330487 303.718743 121.184601 303.718743 284.884408 0 120.327671-74.690863 223.004196-180.059014 264.977653-12.480364 4.845531-21.415194 17.006687-21.415194 31.209974 0 11.624441 13.127845 24.54183 22.924639 32.613688 7.535143 6.133444 14.314054 13.127845 19.585532 21.310469 47.359731 73.295205 75.018128 160.578206 75.018128 254.429661L713.301009 990.422644c0 18.509083 15.066259 33.575342 33.580377 33.575342 18.509083 0 33.580377-15.066259 33.580377-33.575342 0-1.188223-0.215491-2.265679-0.325251-3.3381 0.110767-4.413542 0.325251-8.932815 0.325251-13.453096C780.461763 862.343331 746.665895 759.236831 688.979705 673.676753L688.979705 673.676753zM688.979705 673.676753" p-id="6781"></path><path d="M353.398473 486.192355c46.172515 137.759298 270.680114 137.759298 316.746898 0 11.945664-35.624523-44.238129-50.802555-56.079069-15.498248-27.332139 81.792003-177.257628 81.792003-204.699527 0C397.631567 435.390807 341.452808 450.56884 353.398473 486.192355L353.398473 486.192355 353.398473 486.192355zM353.398473 486.192355" p-id="6782"></path></svg>