<?xml version="1.0" standalone="no"?><!DOCTYPE svg PUBLIC "-//W3C//DTD SVG 1.1//EN" "http://www.w3.org/Graphics/SVG/1.1/DTD/svg11.dtd"><svg t="1521986534512" class="icon" style="" viewBox="0 0 1024 1024" version="1.1" xmlns="http://www.w3.org/2000/svg" p-id="5953" xmlns:xlink="http://www.w3.org/1999/xlink" width="200" height="200"><defs><style type="text/css"></style></defs><path d="M334.08 304m-90.24 0a90.24 90.24 0 1 0 180.48 0 90.24 90.24 0 1 0-180.48 0Z" fill="" p-id="5954"></path><path d="M501.76 257.92m-45.44 0a45.44 45.44 0 1 0 90.88 0 45.44 45.44 0 1 0-90.88 0Z" fill="" p-id="5955"></path><path d="M631.68 269.44m-45.44 0a45.44 45.44 0 1 0 90.88 0 45.44 45.44 0 1 0-90.88 0Z" fill="" p-id="5956"></path><path d="M737.92 327.68m-45.44 0a45.44 45.44 0 1 0 90.88 0 45.44 45.44 0 1 0-90.88 0Z" fill="" p-id="5957"></path><path d="M472.32 364.16c-138.24 55.04-102.4 176.64-8.96 208.64 60.8 20.48 31.36 90.88 24.96 130.56-12.8 78.08 55.68 96.64 123.52 85.12 67.2-11.52 160.64-170.24 99.2-323.2-64.64-159.36-238.72-101.12-238.72-101.12z" fill="" p-id="5958"></path></svg>